HIERARCHY
ROOT Hips
{
	OFFSET 0.053599 88.859886 3.107447
	CHANNELS 6 Xposition Yposition Zposition Zrotation Yrotation Xrotation 
	JOINT Spine
	{
		OFFSET -0.000000 8.814246 -2.080107
		CHANNELS 3 Zrotation Yrotation Xrotation
		JOINT Spine1
		{
			OFFSET 0.000000 8.844141 0.000000
			CHANNELS 3 Zrotation Yrotation Xrotation
			JOINT Spine2
			{
				OFFSET -0.000000 11.682268 0.000000
				CHANNELS 3 Zrotation Yrotation Xrotation
				JOINT Spine3
				{
					OFFSET 0.000000 11.746700 0.000000
					CHANNELS 3 Zrotation Yrotation Xrotation
					JOINT Neck
					{
						OFFSET -0.000000 17.658264 -0.000000
						CHANNELS 3 Zrotation Yrotation Xrotation
						JOINT Neck1
						{
							OFFSET -0.000000 5.101515 -0.000000
							CHANNELS 3 Zrotation Yrotation Xrotation
							JOINT Head
							{
								OFFSET 0.000000 5.101515 0.000000
								CHANNELS 3 Zrotation Yrotation Xrotation
								JOINT HeadEnd
								{
									OFFSET 0.000000 11.655085 0.000000
									CHANNELS 3 Zrotation Yrotation Xrotation
									End Site
									{
										OFFSET 0.000000 0.000000 0.000000
									}
								}
							}
						}
					}
					JOINT RightShoulder
					{
						OFFSET -2.625389 11.175210 0.000000
						CHANNELS 3 Zrotation Yrotation Xrotation
						JOINT RightArm
						{
							OFFSET -0.000000 10.434715 -0.000000
							CHANNELS 3 Zrotation Yrotation Xrotation
							JOINT RightForeArm
							{
								OFFSET -0.000000 29.628420 0.000000
								CHANNELS 3 Zrotation Yrotation Xrotation
								JOINT RightHand
								{
									OFFSET -0.000000 22.857611 0.000000
									CHANNELS 3 Zrotation Yrotation Xrotation
									JOINT RightHandThumb1
									{
										OFFSET -2.867323 3.959563 2.944291
										CHANNELS 3 Zrotation Yrotation Xrotation
										JOINT RightHandThumb2
										{
											OFFSET 0.000000 3.350399 0.000000
											CHANNELS 3 Zrotation Yrotation Xrotation
											JOINT RightHandThumb3
											{
												OFFSET 0.000000 3.756509 -0.000000
												CHANNELS 3 Zrotation Yrotation Xrotation
												JOINT RightHandThumb4
												{
													OFFSET 0.000000 3.147345 0.000000
													CHANNELS 3 Zrotation Yrotation Xrotation
													End Site
													{
														OFFSET 0.000000 0.000000 0.000000
													}
												}
											}
										}
									}
									JOINT RightHandIndex1
									{
										OFFSET -0.086752 10.030893 2.345280
										CHANNELS 3 Zrotation Yrotation Xrotation
										JOINT RightHandIndex2
										{
											OFFSET -0.000000 4.061090 0.000000
											CHANNELS 3 Zrotation Yrotation Xrotation
											JOINT RightHandIndex3
											{
												OFFSET -0.000000 3.248873 0.000000
												CHANNELS 3 Zrotation Yrotation Xrotation
												JOINT RightHandIndex4
												{
													OFFSET 0.000000 2.639709 -0.000000
													CHANNELS 3 Zrotation Yrotation Xrotation
													End Site
													{
														OFFSET 0.000000 0.000000 0.000000
													}
												}
											}
										}
									}
									JOINT RightHandMiddle1
									{
										OFFSET 0.104102 9.502952 0.006768
										CHANNELS 3 Zrotation Yrotation Xrotation
										JOINT RightHandMiddle2
										{
											OFFSET 0.000000 4.568727 0.000000
											CHANNELS 3 Zrotation Yrotation Xrotation
											JOINT RightHandMiddle3
											{
												OFFSET 0.000000 3.654981 -0.000000
												CHANNELS 3 Zrotation Yrotation Xrotation
												JOINT RightHandMiddle4
												{
													OFFSET -0.000000 2.741236 -0.000000
													CHANNELS 3 Zrotation Yrotation Xrotation
													End Site
													{
														OFFSET 0.000000 0.000000 0.000000
													}
												}
											}
										}
									}
									JOINT RightHandRing1
									{
										OFFSET 0.086752 8.921708 -2.267442
										CHANNELS 3 Zrotation Yrotation Xrotation
										JOINT RightHandRing2
										{
											OFFSET -0.000000 4.061090 0.000000
											CHANNELS 3 Zrotation Yrotation Xrotation
											JOINT RightHandRing3
											{
												OFFSET 0.000000 3.654981 -0.000000
												CHANNELS 3 Zrotation Yrotation Xrotation
												JOINT RightHandRing4
												{
													OFFSET 0.000000 2.741236 -0.000000
													CHANNELS 3 Zrotation Yrotation Xrotation
													End Site
													{
														OFFSET 0.000000 0.000000 0.000000
													}
												}
											}
										}
									}
									JOINT RightHandPinky1
									{
										OFFSET -0.173504 7.976997 -4.467199
										CHANNELS 3 Zrotation Yrotation Xrotation
										JOINT RightHandPinky2
										{
											OFFSET 0.000000 3.350399 -0.000000
											CHANNELS 3 Zrotation Yrotation Xrotation
											JOINT RightHandPinky3
											{
												OFFSET -0.000000 2.842763 0.000000
												CHANNELS 3 Zrotation Yrotation Xrotation
												JOINT RightHandPinky4
												{
													OFFSET -0.000000 2.639709 0.000000
													CHANNELS 3 Zrotation Yrotation Xrotation
													End Site
													{
														OFFSET 0.000000 0.000000 0.000000
													}
												}
											}
										}
									}
									JOINT RightForeArmEnd
									{
										OFFSET 0.000000 0.000000 0.000000
										CHANNELS 3 Zrotation Yrotation Xrotation
										End Site
										{
											OFFSET 0.000000 0.000000 0.000000
										}
									}
								}
								JOINT RightArmEnd
								{
									OFFSET 0.000000 0.000000 0.000000
									CHANNELS 3 Zrotation Yrotation Xrotation
									End Site
									{
										OFFSET 0.000000 0.000000 0.000000
									}
								}
							}
						}
					}
					JOINT LeftShoulder
					{
						OFFSET 2.625389 11.175210 0.000000
						CHANNELS 3 Zrotation Yrotation Xrotation
						JOINT LeftArm
						{
							OFFSET 0.000000 10.813635 -0.000000
							CHANNELS 3 Zrotation Yrotation Xrotation
							JOINT LeftForeArm
							{
								OFFSET 0.000000 28.724781 0.000000
								CHANNELS 3 Zrotation Yrotation Xrotation
								JOINT LeftHand
								{
									OFFSET 0.644384 25.716167 -0.328871
									CHANNELS 3 Zrotation Yrotation Xrotation
									JOINT LeftHandThumb1
									{
										OFFSET 2.867323 3.959563 2.944291
										CHANNELS 3 Zrotation Yrotation Xrotation
										JOINT LeftHandThumb2
										{
											OFFSET 0.000000 3.350399 0.000000
											CHANNELS 3 Zrotation Yrotation Xrotation
											JOINT LeftHandThumb3
											{
												OFFSET -0.000000 3.756509 0.000000
												CHANNELS 3 Zrotation Yrotation Xrotation
												JOINT LeftHandThumb4
												{
													OFFSET -0.000000 3.100000 0.000000
													CHANNELS 3 Zrotation Yrotation Xrotation
													End Site
													{
														OFFSET 0.000000 0.000000 0.000000
													}
												}
											}
										}
									}
									JOINT LeftHandIndex1
									{
										OFFSET 0.086752 10.030893 2.345280
										CHANNELS 3 Zrotation Yrotation Xrotation
										JOINT LeftHandIndex2
										{
											OFFSET -0.000000 4.061090 -0.000000
											CHANNELS 3 Zrotation Yrotation Xrotation
											JOINT LeftHandIndex3
											{
												OFFSET 0.000000 3.248873 -0.000000
												CHANNELS 3 Zrotation Yrotation Xrotation
												JOINT LeftHandIndex4
												{
													OFFSET 0.000000 2.639709 -0.000000
													CHANNELS 3 Zrotation Yrotation Xrotation
													End Site
													{
														OFFSET 0.000000 0.000000 0.000000
													}
												}
											}
										}
									}
									JOINT LeftHandMiddle1
									{
										OFFSET -0.104102 9.502952 0.006768
										CHANNELS 3 Zrotation Yrotation Xrotation
										JOINT LeftHandMiddle2
										{
											OFFSET -0.000000 4.568727 -0.000000
											CHANNELS 3 Zrotation Yrotation Xrotation
											JOINT LeftHandMiddle3
											{
												OFFSET 0.000000 3.654981 0.000000
												CHANNELS 3 Zrotation Yrotation Xrotation
												JOINT LeftHandMiddle4
												{
													OFFSET 0.000000 2.741236 -0.000000
													CHANNELS 3 Zrotation Yrotation Xrotation
													End Site
													{
														OFFSET 0.000000 0.000000 0.000000
													}
												}
											}
										}
									}
									JOINT LeftHandRing1
									{
										OFFSET -0.086752 8.921708 -2.267442
										CHANNELS 3 Zrotation Yrotation Xrotation
										JOINT LeftHandRing2
										{
											OFFSET 0.000000 4.061090 0.000000
											CHANNELS 3 Zrotation Yrotation Xrotation
											JOINT LeftHandRing3
											{
												OFFSET 0.000000 3.654981 0.000000
												CHANNELS 3 Zrotation Yrotation Xrotation
												JOINT LeftHandRing4
												{
													OFFSET 0.000000 2.741236 0.000000
													CHANNELS 3 Zrotation Yrotation Xrotation
													End Site
													{
														OFFSET 0.000000 0.000000 0.000000
													}
												}
											}
										}
									}
									JOINT LeftHandPinky1
									{
										OFFSET 0.173504 7.976997 -4.467199
										CHANNELS 3 Zrotation Yrotation Xrotation
										JOINT LeftHandPinky2
										{
											OFFSET -0.000000 3.350399 -0.000000
											CHANNELS 3 Zrotation Yrotation Xrotation
											JOINT LeftHandPinky3
											{
												OFFSET 0.000000 2.842763 0.000000
												CHANNELS 3 Zrotation Yrotation Xrotation
												JOINT LeftHandPinky4
												{
													OFFSET -0.000000 2.639709 -0.000000
													CHANNELS 3 Zrotation Yrotation Xrotation
													End Site
													{
														OFFSET 0.000000 0.000000 0.000000
													}
												}
											}
										}
									}
									JOINT LeftForeArmEnd
									{
										OFFSET 0.000000 0.000000 0.000000
										CHANNELS 3 Zrotation Yrotation Xrotation
										End Site
										{
											OFFSET 0.000000 0.000000 0.000000
										}
									}
								}
								JOINT LeftArmEnd
								{
									OFFSET 0.000000 0.000000 0.000000
									CHANNELS 3 Zrotation Yrotation Xrotation
									End Site
									{
										OFFSET 0.000000 0.000000 0.000000
									}
								}
							}
						}
					}
				}
			}
		}
	}
	JOINT RightUpLeg
	{
		OFFSET -11.289943 0.000000 0.000000
		CHANNELS 3 Zrotation Yrotation Xrotation
		JOINT RightLeg
		{
			OFFSET 0.000000 -38.200325 0.000000
			CHANNELS 3 Zrotation Yrotation Xrotation
			JOINT RightFoot
			{
				OFFSET -0.000000 -39.900856 -0.000000
				CHANNELS 3 Zrotation Yrotation Xrotation
				JOINT RightToeBase
				{
					OFFSET 0.000000 0.000000 15.261641
					CHANNELS 3 Zrotation Yrotation Xrotation
					JOINT RightToeBaseEnd
					{
						OFFSET 0.000000 0.000000 7.370709
						CHANNELS 3 Zrotation Yrotation Xrotation
						End Site
						{
							OFFSET 0.000000 0.000000 0.000000
						}
					}
				}
				JOINT RightLegEnd
				{
					OFFSET 0.000000 0.000000 0.000000
					CHANNELS 3 Zrotation Yrotation Xrotation
					End Site
					{
						OFFSET 0.000000 0.000000 0.000000
					}
				}
			}
			JOINT RightUpLegEnd
			{
				OFFSET 0.000000 0.000000 0.000000
				CHANNELS 3 Zrotation Yrotation Xrotation
				End Site
				{
					OFFSET 0.000000 0.000000 0.000000
				}
			}
		}
	}
	JOINT LeftUpLeg
	{
		OFFSET 11.315661 -0.000000 0.000000
		CHANNELS 3 Zrotation Yrotation Xrotation
		JOINT LeftLeg
		{
			OFFSET -0.000000 -38.200325 -0.000000
			CHANNELS 3 Zrotation Yrotation Xrotation
			JOINT LeftFoot
			{
				OFFSET 0.000000 -39.900856 -0.000000
				CHANNELS 3 Zrotation Yrotation Xrotation
				JOINT LeftToeBase
				{
					OFFSET -0.000000 -0.000000 15.261641
					CHANNELS 3 Zrotation Yrotation Xrotation
					JOINT LeftToeBaseEnd
					{
						OFFSET 0.000000 -0.000000 7.539996
						CHANNELS 3 Zrotation Yrotation Xrotation
						End Site
						{
							OFFSET 0.000000 0.000000 0.000000
						}
					}
				}
				JOINT LeftLegEnd
				{
					OFFSET 0.000000 0.000000 0.000000
					CHANNELS 3 Zrotation Yrotation Xrotation
					End Site
					{
						OFFSET 0.000000 0.000000 0.000000
					}
				}
			}
			JOINT LeftUpLegEnd
			{
				OFFSET 0.000000 0.000000 0.000000
				CHANNELS 3 Zrotation Yrotation Xrotation
				End Site
				{
					OFFSET 0.000000 0.000000 0.000000
				}
			}
		}
	}
}
MOTION
Frames: 4
Frame Time: 0.016667
0.125487 88.503258 3.647054 -0.468430 -0.853843 -11.129678 1.047804 -0.010582 7.543481 -0.474155 0.120348 3.028400 -0.316758 -0.521015 5.379178 -1.086260 0.010410 5.237069 2.064428 -0.350471 6.229438 0.376248 0.106113 -2.491718 -0.154194 -0.774228 -20.025957 0.000000 0.000000 0.000000 93.071472 -0.226379 10.203965 66.090225 -26.427586 6.641917 0.066082 16.710672 23.422640 5.268534 11.814123 -6.751214 19.752094 30.140953 62.182579 -8.348999 -11.936084 -20.204586 -6.217419 -7.868594 -13.956540 0.000000 0.000000 0.000000 10.483304 -10.830940 1.391335 9.071047 0.336748 1.472337 8.780499 -0.082928 1.436576 0.000000 0.000000 0.000000 10.049117 -5.189012 0.012499 7.907195 0.436223 0.526959 8.330100 -0.050867 0.471996 0.000000 0.000000 0.000000 11.786418 2.469393 -0.292825 8.975850 -0.885125 -0.826144 8.775721 0.057942 -0.585500 0.000000 0.000000 0.000000 11.639433 10.812890 -1.693781 9.232221 -1.665496 -2.369994 8.941042 0.234336 -1.898162 0.000000 0.000000 0.000000 0.000000 0.000000 0.000000 0.000000 0.000000 0.000000 -90.455650 0.195991 5.309066 -71.419411 13.536875 -7.046154 -0.901820 -12.079309 48.081474 -0.686476 -14.375359 -16.290297 -19.505203 -30.213278 62.320557 8.225435 11.346578 -19.492109 6.011830 7.635887 -13.685911 0.000000 0.000000 0.000000 -12.258962 -6.680874 2.629361 -8.118326 0.389286 -1.012774 -8.071864 -0.067474 -0.983199 0.000000 0.000000 0.000000 -12.794971 -1.354778 0.368469 -8.182201 0.441541 -0.464479 -8.585535 -0.037588 -0.378508 0.000000 0.000000 0.000000 -17.747915 7.234258 -1.471936 -11.468735 -0.920831 0.771939 -11.266685 0.053533 0.612298 0.000000 0.000000 0.000000 -21.663439 16.278576 -4.639999 -13.836354 -1.630143 2.523616 -13.260489 0.328124 2.222350 0.000000 0.000000 0.000000 0.000000 0.000000 0.000000 0.000000 0.000000 0.000000 0.026254 -9.672422 15.341166 -0.072248 -0.709121 5.443532 -3.745554 -7.186040 16.264866 -0.782578 0.912606 -18.066414 0.000000 0.000000 0.000000 0.000000 0.000000 0.000000 0.000000 0.000000 0.000000 -0.943821 -6.007047 9.947079 0.051873 0.295529 11.026126 3.699650 -1.232203 15.200946 0.238289 -0.366858 -20.316553 0.000000 0.000000 0.000000 0.000000 0.000000 0.000000 0.000000 0.000000 0.000000 
0.127530 88.504135 3.682657 -0.473495 -0.894364 -11.143505 1.060507 -0.011571 7.535183 -0.487132 0.123275 2.989329 -0.312922 -0.512005 5.423165 -1.100737 0.017769 5.235852 2.017780 -0.348534 6.200832 0.363350 0.090310 -2.507117 -0.150868 -0.768337 -20.023924 0.000000 0.000000 0.000000 93.047409 -0.234114 10.214783 66.094437 -26.622829 6.676143 0.045641 16.572559 23.383411 5.483259 11.780066 -6.662543 19.789694 30.129967 62.142860 -8.383744 -12.014620 -20.318897 -6.247586 -7.918223 -14.034286 0.000000 0.000000 0.000000 10.856009 -10.893506 1.323460 9.268412 0.328840 1.500654 8.979863 -0.090645 1.460213 0.000000 0.000000 0.000000 10.381877 -5.245462 -0.035056 8.092478 0.432808 0.538898 8.509819 -0.053738 0.481450 0.000000 0.000000 0.000000 12.061921 2.423667 -0.321439 9.139246 -0.879782 -0.841151 8.942995 0.062005 -0.597267 0.000000 0.000000 0.000000 11.855573 10.776215 -1.700894 9.364606 -1.649279 -2.415652 9.077947 0.247476 -1.937081 0.000000 0.000000 0.000000 0.000000 0.000000 0.000000 0.000000 0.000000 0.000000 -90.451736 0.200615 5.322428 -71.395187 13.842680 -7.075130 -0.872283 -11.961162 48.064327 -0.992708 -14.361537 -16.244980 -19.599676 -30.185390 62.227329 8.315835 11.535200 -19.776207 6.087239 7.759169 -13.880630 0.000000 0.000000 0.000000 -13.002326 -6.544038 2.347232 -8.544976 0.381056 -1.038158 -8.486419 -0.075650 -1.005743 0.000000 0.000000 0.000000 -13.463381 -1.234832 0.158302 -8.592264 0.437925 -0.475332 -8.996202 -0.040715 -0.386806 0.000000 0.000000 0.000000 -18.356148 7.332939 -1.582904 -11.870991 -0.914533 0.785790 -11.666132 0.058173 0.622665 0.000000 0.000000 0.000000 -22.160517 16.346346 -4.651128 -14.180051 -1.612467 2.560352 -13.607280 0.342622 2.251744 0.000000 0.000000 0.000000 0.000000 0.000000 0.000000 0.000000 0.000000 0.000000 0.015681 -9.656687 15.416462 -0.072880 -0.713500 5.388268 -3.735041 -7.152589 16.242731 -0.788150 0.917410 -18.045061 0.000000 0.000000 0.000000 0.000000 0.000000 0.000000 0.000000 0.000000 0.000000 -0.942249 -6.005535 10.000914 0.052211 0.294925 11.022403 3.688517 -1.216398 15.175045 0.238536 -0.368498 -20.296196 0.000000 0.000000 0.000000 0.000000 0.000000 0.000000 0.000000 0.000000 0.000000 
0.129132 88.505875 3.719069 -0.478173 -0.923978 -11.156868 1.075581 -0.011456 7.524125 -0.504024 0.128447 2.950945 -0.305030 -0.498344 5.468217 -1.119942 0.028515 5.235062 1.974808 -0.352111 6.167818 0.352418 0.070323 -2.526934 -0.144964 -0.763223 -20.017834 0.000000 0.000000 0.000000 93.018562 -0.239584 10.230596 66.113266 -26.817165 6.692961 0.027180 16.453190 23.358883 5.666532 11.766918 -6.575791 19.825069 30.119753 62.105362 -8.415873 -12.089961 -20.427473 -6.275629 -7.965393 -14.107672 0.000000 0.000000 0.000000 11.211910 -10.952074 1.264056 9.464945 0.321439 1.526632 9.178678 -0.097766 1.481902 0.000000 0.000000 0.000000 10.699841 -5.298960 -0.075429 8.276817 0.429681 0.549951 8.689320 -0.056355 0.490123 0.000000 0.000000 0.000000 12.327339 2.379404 -0.344929 9.301371 -0.874743 -0.855071 9.109141 0.065788 -0.608083 0.000000 0.000000 0.000000 12.066101 10.741223 -1.703856 9.496219 -1.633950 -2.457786 9.214135 0.259864 -1.972807 0.000000 0.000000 0.000000 0.000000 0.000000 0.000000 0.000000 0.000000 0.000000 -90.440483 0.204291 5.338441 -71.360840 14.183929 -7.087383 -0.840940 -11.850753 48.068920 -1.251459 -14.283383 -16.188000 -19.686399 -30.159519 62.140423 8.399886 11.711337 -20.040821 6.157460 7.874056 -14.061232 0.000000 0.000000 0.000000 -13.706994 -6.412141 2.109941 -8.956681 0.373016 -1.062035 -8.885978 -0.083604 -1.026652 0.000000 0.000000 0.000000 -14.096031 -1.120160 -0.015543 -8.989065 0.434328 -0.485713 -9.393208 -0.043772 -0.394637 0.000000 0.000000 0.000000 -18.934984 7.425968 -1.666742 -12.262500 -0.908347 0.799061 -12.056180 0.062629 0.632565 0.000000 0.000000 0.000000 -22.635202 16.408812 -4.643629 -14.516924 -1.595142 2.596472 -13.947756 0.356650 2.279996 0.000000 0.000000 0.000000 0.000000 0.000000 0.000000 0.000000 0.000000 0.000000 0.002510 -9.645811 15.491325 -0.073486 -0.717810 5.329565 -3.724006 -7.126462 16.227894 -0.794597 0.921696 -18.025732 0.000000 0.000000 0.000000 0.000000 0.000000 0.000000 0.000000 0.000000 0.000000 -0.942318 -6.010748 10.054709 0.052609 0.294776 11.016591 3.676760 -1.210038 15.149791 0.238266 -0.370239 -20.275909 0.000000 0.000000 0.000000 0.000000 0.000000 0.000000 0.000000 0.000000 0.000000 
0.130350 88.508118 3.755703 -0.481620 -0.942607 -11.170877 1.091520 -0.010185 7.511591 -0.522624 0.135318 2.915229 -0.294112 -0.479657 5.512984 -1.143459 0.042207 5.234808 1.937087 -0.362221 6.133196 0.342857 0.045466 -2.549044 -0.136770 -0.759017 -20.008564 0.000000 0.000000 0.000000 92.987450 -0.242261 10.250507 66.138763 -27.011292 6.704212 0.011091 16.350834 23.346146 5.810260 11.764294 -6.494545 19.856674 30.110832 62.072216 -8.443686 -12.158691 -20.524769 -6.300141 -8.007856 -14.173204 0.000000 0.000000 0.000000 11.533905 -11.004334 1.214108 9.653794 0.314974 1.549077 9.370002 -0.103924 1.500540 0.000000 0.000000 0.000000 10.988023 -5.347222 -0.107617 8.454530 0.426981 0.559659 8.862577 -0.058606 0.497632 0.000000 0.000000 0.000000 12.571089 2.338632 -0.361936 9.459275 -0.870304 -0.867295 9.271098 0.069082 -0.617554 0.000000 0.000000 0.000000 12.262500 10.709547 -1.700803 9.626552 -1.620447 -2.494826 9.349095 0.270819 -2.004214 0.000000 0.000000 0.000000 0.000000 0.000000 0.000000 0.000000 0.000000 0.000000 -90.425781 0.207551 5.356517 -71.315628 14.552786 -7.079934 -0.808680 -11.749328 48.085243 -1.457582 -14.137738 -16.130142 -19.763176 -30.136209 62.062195 8.475732 11.869998 -20.278545 6.220769 7.977396 -14.223013 0.000000 0.000000 0.000000 -14.349969 -6.289348 1.915342 -9.339445 0.365787 -1.083115 -9.257521 -0.090758 -1.044806 0.000000 0.000000 0.000000 -14.673149 -1.014266 -0.154518 -9.359118 0.431015 -0.495108 -9.763241 -0.046537 -0.401626 0.000000 0.000000 0.000000 -19.467779 7.510891 -1.724249 -12.630345 -0.902639 0.811190 -12.423868 0.066644 0.641536 0.000000 0.000000 0.000000 -23.075724 16.464886 -4.618124 -14.835645 -1.579224 2.630436 -14.270631 0.369413 2.305871 0.000000 0.000000 0.000000 0.000000 0.000000 0.000000 0.000000 0.000000 0.000000 -0.013558 -9.638962 15.564632 -0.074007 -0.721849 5.271278 -3.712444 -7.107045 16.219015 -0.801399 0.925511 -18.008825 0.000000 0.000000 0.000000 0.000000 0.000000 0.000000 0.000000 0.000000 0.000000 -0.943560 -6.020617 10.107983 0.053099 0.295213 11.011280 3.664152 -1.214510 15.125262 0.237462 -0.372157 -20.257467 0.000000 0.000000 0.000000 0.000000 0.000000 0.000000 0.000000 0.000000 0.000000 
